<svg width="50" height="50" viewBox="0 0 50 50" fill="none" xmlns="http://www.w3.org/2000/svg">
<path d="M24.7754 0C1.79914 0 0 1.79914 0 24.7754V25.2246C0 48.2009 1.79914 50 24.7754 50H25.2246C48.2009 50 50 48.2009 50 25.2246V25C50 1.815 48.185 0 25 0H24.7754ZM20 5H30C43.9113 5 45 6.08875 45 20V30C45 43.9113 43.9113 45 30 45H20C6.08875 45 5 43.9113 5 30V20C5 6.08875 6.08875 5 20 5ZM37.4927 10C36.1114 10.0037 34.9963 11.1261 35 12.5073C35.0037 13.8886 36.1261 15.0037 37.5073 15C38.8886 14.9963 40.0037 13.8739 40 12.4927C39.9963 11.1114 38.8739 9.99625 37.4927 10ZM24.9707 12.5C18.0682 12.5163 12.4838 18.1268 12.5 25.0293C12.5163 31.9318 18.1268 37.5163 25.0293 37.5C31.9318 37.4837 37.5163 31.8732 37.5 24.9707C37.4837 18.0682 31.8732 12.4838 24.9707 12.5ZM24.9829 17.5C29.1242 17.49 32.49 20.8417 32.5 24.9829C32.5088 29.1242 29.1583 32.49 25.0171 32.5C20.8758 32.51 17.51 29.1596 17.5 25.0171C17.49 20.8758 20.8417 17.51 24.9829 17.5Z" fill="#A78973"/>
</svg>
