<svg width="14" height="29" viewBox="0 0 14 29" fill="none" xmlns="http://www.w3.org/2000/svg">
<path d="M11.4545 28.0432C11.4545 28.0432 14 28.0432 14 25.4939V2.54928C14 0 11.4545 0 11.4545 0H2.54545C2.54545 0 0 0 0 2.54928V25.4939C3.54081e-05 28.0432 2.54545 28.0432 2.54545 28.0432H11.4545ZM7 26.9817C6.29747 26.9817 5.72729 26.4115 5.72729 25.709C5.72729 25.0065 6.29747 24.4363 7 24.4363C7.70257 24.4363 8.27271 25.0065 8.27271 25.709C8.27271 26.4116 7.70257 26.9817 7 26.9817ZM5.0909 1.55399C5.0909 1.39618 5.166 1.27271 5.26015 1.27271H8.73978C8.83269 1.27271 8.90906 1.39873 8.90906 1.55399V1.62909C8.90906 1.7869 8.83269 1.91037 8.73978 1.91037H5.26015C5.16724 1.91037 5.0909 1.78435 5.0909 1.62909V1.55399ZM1.27274 3.18181H12.7273V23.5454H1.27274V3.18181Z" fill="#F4D6BB"/>
</svg>
