<svg width="49" height="45" viewBox="0 0 49 45" fill="none" xmlns="http://www.w3.org/2000/svg">
<path d="M48.0768 0.699597C47.2428 -0.00899159 45.933 -0.110378 44.5787 0.434434H44.5765C43.1521 1.0071 4.25721 17.7236 2.67384 18.4065C2.38585 18.5068 -0.129303 19.4471 0.129774 21.5417C0.361053 23.4302 2.38252 24.2123 2.62936 24.3025L12.5176 27.6951C13.1737 29.8832 15.5921 37.9562 16.1269 39.6809C16.4605 40.7561 17.0042 42.1688 17.9571 42.4596C18.7933 42.7827 19.625 42.4874 20.1632 42.064L26.2087 36.4455L35.968 44.0717L36.2004 44.211C36.8631 44.5051 37.498 44.6522 38.104 44.6522C38.5721 44.6522 39.0213 44.5642 39.4505 44.3881C40.9127 43.7865 41.4976 42.3905 41.5587 42.2323L48.8484 4.26594C49.2932 2.23822 48.675 1.20653 48.0768 0.699597ZM21.2384 29.0521L17.9027 37.9651L14.5669 26.8238L40.141 7.88353L21.2384 29.0521Z" fill="#A78973"/>
</svg>
