<svg width="50" height="50" viewBox="0 0 50 50" fill="none" xmlns="http://www.w3.org/2000/svg">
<path d="M14.7168 3.38983C1.0693 3.38983 0 4.29496 0 15.8617V33.2909C0 44.8565 1.0693 45.7627 14.7168 45.7627H35.2832C48.9307 45.7627 50 44.8576 50 33.2909V15.8617C50 4.29496 48.932 3.38983 35.2832 3.38983H14.7168ZM11.46 7.62712H38.54C44.5313 7.62712 45 8.02433 45 13.1017V36.0509C45 41.1282 44.53 41.5254 38.54 41.5254H11.46C5.46871 41.5254 5 41.1272 5 36.0509V13.1017C5 8.02433 5.46871 7.62712 11.46 7.62712ZM23.6035 16.3189C18.4035 16.3189 18.1642 17.3537 18.7842 17.6059C19.5517 17.9184 20.6006 18.2961 20.6006 20.1383C20.6006 22.8385 20.6185 24.4356 19.6997 24.4356C18.781 24.4356 18.2981 24.0702 16.3306 21.0321C14.0131 17.4537 14.0251 17.041 12.3901 17.041H8.11523C7.26648 17.041 7.02139 17.6288 7.23389 18.061C7.50264 18.6098 11.3467 25.9793 15.3979 29.457C19.4492 32.9358 23.5881 32.8315 24.1943 32.8315H25.3247C26.5935 32.8315 27.047 32.2152 27.1558 31.7184C27.5245 30.0373 27.6417 29.0453 28.4204 29.0453C29.1654 29.0453 29.6224 29.4356 32.9712 32.2936C33.3837 32.6453 33.7428 32.8315 34.8315 32.8315H39.8145C40.7195 32.8315 42.2055 32.7046 41.0742 31.1039C40.978 30.9715 40.4158 29.9224 37.6758 27.7646C35.342 25.9214 35.4601 25.7191 38.5376 21.8928C41.0038 18.8261 41.3752 18.2665 41.189 17.7548C41.0165 17.2834 40.8051 17.101 39.5264 17.101C38.4164 17.101 35.6448 17.041 34.7485 17.041C33.3948 17.041 33.2001 17.8828 31.2964 21.1624C29.7576 23.8139 28.9647 24.6052 28.2935 24.6052C27.5272 24.6052 27.1216 23.9299 27.1216 21.4066C27.1216 17.8218 27.3223 16.3189 23.6035 16.3189Z" fill="#A78973"/>
</svg>
