<svg width="50" height="50" viewBox="0 0 50 50" fill="none" xmlns="http://www.w3.org/2000/svg">
<path d="M25.0317 0C11.2654 0 0.0587167 11.1959 0.0537162 24.9609C0.0512159 29.3609 1.20379 33.6564 3.389 37.4414L0 50L13.0823 46.9092C16.7302 48.8992 20.8367 49.9438 25.0171 49.9463H25.0269C38.7907 49.9463 49.9925 38.7479 50 24.9854C50.005 18.3129 47.41 12.0393 42.6946 7.31934C37.9791 2.60184 31.7124 0.0025 25.0317 0ZM25.0269 5C30.3674 5.0025 35.3862 7.08449 39.1591 10.8545C42.932 14.6295 45.0045 19.6455 44.9995 24.9805C44.9945 35.9905 36.038 44.9463 25.022 44.9463C21.6891 44.9438 18.3878 44.107 15.48 42.5195L13.7953 41.6016L11.9348 42.041L7.0124 43.2031L8.21369 38.7402L8.75574 36.7383L7.72048 34.9414C5.97531 31.9214 5.0517 28.4684 5.0542 24.9609C5.0592 13.9559 14.0183 5 25.0269 5ZM16.193 13.4375C15.7754 13.4375 15.1003 13.5938 14.5278 14.2188C13.9552 14.8413 12.3401 16.3489 12.3401 19.4189C12.3401 22.4889 14.5766 25.4565 14.8891 25.874C15.1992 26.289 19.2062 32.7881 25.5494 35.2881C30.8199 37.3656 31.8903 36.9556 33.0354 36.8506C34.1806 36.7481 36.7297 35.3442 37.2497 33.8867C37.7698 32.4292 37.771 31.1755 37.616 30.918C37.461 30.658 37.0446 30.5029 36.4196 30.1904C35.797 29.8779 32.729 28.3716 32.1565 28.1641C31.5839 27.9566 31.1651 27.8516 30.7501 28.4766C30.335 29.1016 29.1423 30.503 28.7772 30.918C28.4122 31.3355 28.0496 31.3916 27.4245 31.0791C26.7995 30.7641 24.7898 30.1035 22.4045 27.9785C20.5493 26.326 19.2975 24.2871 18.9325 23.6621C18.57 23.0396 18.8983 22.6977 19.2109 22.3877C19.4909 22.1077 19.831 21.6589 20.1436 21.2939C20.4536 20.9289 20.5611 20.6689 20.7686 20.2539C20.9761 19.8389 20.8699 19.4727 20.7149 19.1602C20.5599 18.8477 19.3459 15.7662 18.7909 14.5312C18.3233 13.4937 17.8295 13.4696 17.3845 13.4521C17.022 13.4371 16.608 13.4375 16.193 13.4375Z" fill="#A78973"/>
</svg>
